<svg width="14" height="14" viewBox="0 0 14 14" fill="none" xmlns="http://www.w3.org/2000/svg">
<g clip-path="url(#clip0_181_3677)">
<path d="M13.417 2.33325V5.83325H9.91699" stroke="white" stroke-width="1.27273" stroke-linecap="round" stroke-linejoin="round"/>
<path d="M0.583008 11.6667V8.16675H4.08301" stroke="white" stroke-width="1.27273" stroke-linecap="round" stroke-linejoin="round"/>
<path d="M2.04717 5.25008C2.34302 4.41404 2.84584 3.66657 3.5087 3.07741C4.17156 2.48825 4.97286 2.07661 5.83784 1.8809C6.70282 1.68519 7.60328 1.71178 8.4552 1.9582C9.30712 2.20462 10.0827 2.66283 10.7097 3.29008L13.4163 5.83342M0.583008 8.16675L3.28967 10.7101C3.91661 11.3373 4.69223 11.7955 5.54415 12.042C6.39607 12.2884 7.29653 12.315 8.16151 12.1193C9.02649 11.9236 9.82779 11.5119 10.4907 10.9228C11.1535 10.3336 11.6563 9.58613 11.9522 8.75009" stroke="white" stroke-width="1.27273" stroke-linecap="round" stroke-linejoin="round"/>
</g>
<defs>
<clipPath id="clip0_181_3677">
<rect width="14" height="14" fill="white"/>
</clipPath>
</defs>
</svg>
