<svg width="34" height="34" viewBox="0 0 34 34" fill="none" xmlns="http://www.w3.org/2000/svg">
<path fill-rule="evenodd" clip-rule="evenodd" d="M27.573 27.5678C27.8007 27.3369 27.9287 27.0236 27.9287 26.697V13.7527C27.9288 13.565 27.8866 13.3798 27.8054 13.2112C27.7242 13.0425 27.606 12.895 27.46 12.7797L17.7457 5.11664C17.5325 4.94846 17.2702 4.85715 17.0001 4.85715C16.73 4.85715 16.4677 4.94846 16.2545 5.11664L6.54025 12.7797C6.39419 12.895 6.27604 13.0425 6.1948 13.2112C6.11357 13.3798 6.07141 13.565 6.07153 13.7527V26.697C6.07153 27.0236 6.19947 27.3369 6.42719 27.5678C6.65491 27.7988 6.96377 27.9286 7.28582 27.9286H13.3571V27.9288H20.6429V27.9286H26.7144C27.0364 27.9286 27.3453 27.7988 27.573 27.5678ZM20.6429 27.9286V21.8574C20.6429 19.8455 19.0119 18.2145 17 18.2145C14.9881 18.2145 13.3571 19.8455 13.3571 21.8574V27.9286H20.6429Z" fill="#353535"/>
</svg>
