<svg width="7" height="9" viewBox="0 0 7 9" fill="none" xmlns="http://www.w3.org/2000/svg">
<path d="M6.33049 3.75607C6.33049 5.89968 3.57443 7.73705 3.57443 7.73705C3.57443 7.73705 0.818359 5.89968 0.818359 3.75607C0.818359 3.02511 1.10873 2.3241 1.62559 1.80723C2.14246 1.29037 2.84347 1 3.57443 1C4.30538 1 5.0064 1.29037 5.52326 1.80723C6.04012 2.3241 6.33049 3.02511 6.33049 3.75607Z" fill="#929292" stroke="#929292" stroke-width="0.572012" stroke-linecap="round" stroke-linejoin="round"/>
<path d="M3.57299 4.67551C4.08036 4.67551 4.49168 4.2642 4.49168 3.75682C4.49168 3.24945 4.08036 2.83813 3.57299 2.83813C3.06561 2.83813 2.6543 3.24945 2.6543 3.75682C2.6543 4.2642 3.06561 4.67551 3.57299 4.67551Z" fill="white" stroke="white" stroke-width="0.572012" stroke-linecap="round" stroke-linejoin="round"/>
</svg>
