<svg width="current" height="current" viewBox="0 0 22 22" fill="none" xmlns="http://www.w3.org/2000/svg">
<g clip-path="url(#clip0_56_818)">
<path fill-rule="evenodd" clip-rule="evenodd" d="M16.5806 15.1664L20.4154 19.0012C20.8059 19.3917 20.8059 20.0249 20.4154 20.4154C20.0248 20.8059 19.3917 20.8059 19.0011 20.4154L15.1663 16.5806C13.7173 17.7181 11.9271 18.3359 10.0833 18.3333C5.52925 18.3333 1.83325 14.6373 1.83325 10.0833C1.83325 5.52931 5.52925 1.83331 10.0833 1.83331C14.6373 1.83331 18.3333 5.52931 18.3333 10.0833C18.3359 11.9271 17.718 13.7173 16.5806 15.1664ZM16.4999 10.0833C16.5025 11.752 15.8529 13.3557 14.6895 14.5521L14.552 14.6896C13.3556 15.8529 11.752 16.5026 10.0833 16.5C6.53759 16.5 3.66659 13.6281 3.66659 10.0833C3.66659 6.53765 6.53759 3.66665 10.0833 3.66665C13.628 3.66665 16.4999 6.53765 16.4999 10.0833Z" fill="current"/>
</g>
<defs>
<clipPath id="clip0_56_818">
<rect width="22" height="22" fill="white"/>
</clipPath>
</defs>
</svg>
