<svg width="34" height="34" viewBox="0 0 34 34" fill="none" xmlns="http://www.w3.org/2000/svg">
<path d="M23.5997 12.5997C23.5997 10.8493 22.9044 9.17067 21.6668 7.933C20.4291 6.69532 18.7504 6 17.0001 6C15.2497 6 13.5711 6.69532 12.3334 7.933C11.0957 9.17067 10.4004 10.8493 10.4004 12.5997C10.4004 20.2993 7.10059 22.4992 7.10059 22.4992H26.8996C26.8996 22.4992 23.5997 20.2993 23.5997 12.5997Z" fill="#BCBCBC" stroke="#BCBCBC" stroke-width="2.19989" stroke-linecap="round" stroke-linejoin="round"/>
<path d="M18.9035 26.8989C18.7101 27.2323 18.4325 27.509 18.0986 27.7014C17.7646 27.8937 17.386 27.995 17.0006 27.995C16.6152 27.995 16.2365 27.8937 15.9026 27.7014C15.5686 27.509 15.291 27.2323 15.0977 26.8989" stroke="#BCBCBC" stroke-width="2.19989" stroke-linecap="round" stroke-linejoin="round"/>
</svg>
