<svg width="40" height="40" viewBox="0 0 40 40" fill="none" xmlns="http://www.w3.org/2000/svg">
<path d="M26.5997 17.5997C26.5997 15.8493 25.9044 14.1707 24.6668 12.933C23.4291 11.6953 21.7504 11 20.0001 11C18.2497 11 16.5711 11.6953 15.3334 12.933C14.0957 14.1707 13.4004 15.8493 13.4004 17.5997C13.4004 25.2993 10.1006 27.4992 10.1006 27.4992H29.8996C29.8996 27.4992 26.5997 25.2993 26.5997 17.5997Z" fill="black" stroke="black" stroke-width="2.19989" stroke-linecap="round" stroke-linejoin="round"/>
<path d="M21.9035 31.8989C21.7101 32.2323 21.4325 32.509 21.0986 32.7014C20.7646 32.8937 20.386 32.995 20.0006 32.995C19.6152 32.995 19.2365 32.8937 18.9026 32.7014C18.5686 32.509 18.291 32.2323 18.0977 31.8989" stroke="black" stroke-width="2.19989" stroke-linecap="round" stroke-linejoin="round"/>
</svg>
