<svg width="34" height="34" viewBox="0 0 34 34" fill="none" xmlns="http://www.w3.org/2000/svg">
<path fill-rule="evenodd" clip-rule="evenodd" d="M27.5728 27.5679C27.8005 27.3369 27.9284 27.0236 27.9284 26.697V13.7527C27.9286 13.5651 27.8864 13.3798 27.8052 13.2112C27.7239 13.0426 27.6058 12.895 27.4597 12.7798L17.7454 5.11667C17.5323 4.94849 17.2699 4.85718 16.9999 4.85718C16.7298 4.85718 16.4674 4.94849 16.2543 5.11667L6.54 12.7798C6.39395 12.895 6.27579 13.0426 6.19456 13.2112C6.11332 13.3798 6.07116 13.5651 6.07129 13.7527V26.697C6.07129 27.0236 6.19922 27.3369 6.42695 27.5679C6.65467 27.7988 6.96353 27.9286 7.28558 27.9286H13.3569V27.9288H20.6426V27.9286H26.7141C27.0362 27.9286 27.3451 27.7988 27.5728 27.5679ZM20.6426 27.9286V21.8574C20.6426 19.8455 19.0117 18.2145 16.9998 18.2145C14.9879 18.2145 13.3569 19.8455 13.3569 21.8574V27.9286H20.6426Z" fill="#BCBCBC"/>
</svg>
