<svg width="34" height="34" viewBox="0 0 34 34" fill="none" xmlns="http://www.w3.org/2000/svg">
<path d="M25.6349 28.1018H8.36501C8.07874 28.1018 7.8042 27.9848 7.60178 27.7766C7.39936 27.5684 7.28564 27.286 7.28564 26.9916V7.00791C7.28564 6.71346 7.39936 6.43108 7.60178 6.22288C7.8042 6.01467 8.07874 5.89771 8.36501 5.89771H25.6349C25.9211 5.89771 26.1957 6.01467 26.3981 6.22288C26.6005 6.43108 26.7142 6.71346 26.7142 7.00791V26.9916C26.7142 27.286 26.6005 27.5684 26.3981 27.7766C26.1957 27.9848 25.9211 28.1018 25.6349 28.1018ZM12.6825 11.4487V13.6691H21.3174V11.4487H12.6825ZM12.6825 15.8895V18.11H21.3174V15.8895H12.6825ZM12.6825 20.3304V22.5508H18.0793V20.3304H12.6825Z" fill="#BCBCBC"/>
</svg>
