<svg width="34" height="34" viewBox="0 0 34 34" fill="none" xmlns="http://www.w3.org/2000/svg">
<path d="M25.6353 28.1018H8.3655C8.07923 28.1018 7.80469 27.9848 7.60227 27.7766C7.39985 27.5684 7.28613 27.286 7.28613 26.9916V7.00791C7.28613 6.71346 7.39985 6.43108 7.60227 6.22288C7.80469 6.01467 8.07923 5.89771 8.3655 5.89771H25.6353C25.9216 5.89771 26.1961 6.01467 26.3986 6.22288C26.601 6.43108 26.7147 6.71346 26.7147 7.00791V26.9916C26.7147 27.286 26.601 27.5684 26.3986 27.7766C26.1961 27.9848 25.9216 28.1018 25.6353 28.1018ZM12.683 11.4487V13.6691H21.3179V11.4487H12.683ZM12.683 15.8895V18.11H21.3179V15.8895H12.683ZM12.683 20.3304V22.5508H18.0798V20.3304H12.683Z" fill="#353535"/>
</svg>
