<svg width="34" height="34" viewBox="0 0 34 34" fill="none" xmlns="http://www.w3.org/2000/svg">
<path d="M20.7633 7.59991C19.8077 6.56817 18.473 6 16.9997 6C15.5187 6 14.1795 6.56473 13.2283 7.59009C12.2668 8.62675 11.7983 10.0356 11.9083 11.557C12.1263 14.5584 14.4103 17 16.9997 17C19.5892 17 21.8692 14.5589 22.0907 11.558C22.2022 10.0504 21.7307 8.64443 20.7633 7.59991ZM25.6426 28H8.35687C8.13061 28.003 7.90655 27.9555 7.70097 27.8609C7.4954 27.7664 7.31349 27.6272 7.16847 27.4535C6.84928 27.0719 6.72062 26.5509 6.81588 26.024C7.23035 23.7248 8.52383 21.7934 10.5569 20.4375C12.363 19.2339 14.6509 18.5715 16.9997 18.5715C19.3485 18.5715 21.6364 19.2344 23.4426 20.4375C25.4757 21.7929 26.7691 23.7243 27.1836 26.0235C27.2789 26.5504 27.1502 27.0714 26.831 27.453C26.686 27.6268 26.5042 27.7661 26.2986 27.8607C26.093 27.9553 25.8689 28.0029 25.6426 28Z" fill="black"/>
</svg>
