<svg width="24" height="24" viewBox="0 0 24 24" fill="none" xmlns="http://www.w3.org/2000/svg">
<path d="M17.8189 8.29098C17.8189 6.67074 17.2059 5.11687 16.1148 3.9712C15.0237 2.82552 13.5438 2.18188 12.0007 2.18188C10.4576 2.18188 8.97776 2.82552 7.88663 3.9712C6.79551 5.11687 6.18253 6.67074 6.18253 8.29098C6.18253 15.4182 3.27344 17.4546 3.27344 17.4546H20.728C20.728 17.4546 17.8189 15.4182 17.8189 8.29098Z" stroke="white" stroke-width="2" stroke-linecap="round" stroke-linejoin="round"/>
<path d="M14.182 20.7273C13.9603 21.0591 13.642 21.3345 13.2591 21.526C12.8762 21.7174 12.4421 21.8182 12.0002 21.8182C11.5583 21.8182 11.1242 21.7174 10.7412 21.526C10.3583 21.3345 10.0401 21.0591 9.81836 20.7273" stroke="white" stroke-width="2" stroke-linecap="round" stroke-linejoin="round"/>
</svg>
