<svg width="13" height="15" viewBox="0 0 13 15" fill="none" xmlns="http://www.w3.org/2000/svg">
<path d="M6.53519 9.24687C6.83084 9.2971 7.0302 9.56497 7.0302 9.86486C7.0302 10.3324 6.55584 10.6576 6.09076 10.61C5.78747 10.5789 5.48078 10.5857 5.17686 10.6311C4.55295 10.7243 3.95892 10.9772 3.44465 11.3686C2.93039 11.76 2.5109 12.2785 2.22142 12.8805C2.02581 13.2874 1.89342 13.7243 1.82817 14.174C1.77611 14.5329 1.48698 14.8283 1.12441 14.8281C0.762216 14.8279 0.464996 14.5334 0.503935 14.1733C0.572662 13.5378 0.741411 12.9177 1.00436 12.3403C1.35696 11.5661 1.86958 10.889 2.50294 10.3608C3.13631 9.83275 3.8736 9.46768 4.65834 9.29363C5.27757 9.15629 5.91337 9.1412 6.53519 9.24687ZM5.71791 8.47338C3.54279 8.47338 1.78104 6.57746 1.78104 4.23669C1.78104 1.89592 3.54279 0 5.71791 0C7.89304 0 9.65479 1.89592 9.65479 4.23669C9.65479 6.57746 7.89304 8.47338 5.71791 8.47338ZM5.71791 7.06115C7.16799 7.06115 8.3425 5.7972 8.3425 4.23669C8.3425 2.67618 7.16799 1.41223 5.71791 1.41223C4.26783 1.41223 3.09333 2.67618 3.09333 4.23669C3.09333 5.7972 4.26783 7.06115 5.71791 7.06115ZM10.5852 11.2978H12.232C12.622 11.2978 12.9381 11.614 12.9381 12.004C12.9381 12.3939 12.622 12.7101 12.232 12.7101H10.5852L11.3552 13.5382C11.5977 13.799 11.5978 14.2028 11.3555 14.4637C11.0866 14.7533 10.6283 14.7534 10.3593 14.4639L8.70602 12.6847C8.34942 12.3009 8.34942 11.707 8.70602 11.3232L10.3593 9.54402C10.6283 9.25454 11.0866 9.25462 11.3555 9.54419C11.5978 9.80514 11.5977 10.2089 11.3552 10.4697L10.5852 11.2978Z" fill="white"/>
</svg>
