<svg width="14" height="13" viewBox="0 0 14 13" fill="none" xmlns="http://www.w3.org/2000/svg">
<path d="M9.23895 1.12742C9.11495 1.5934 8.84047 2.00536 8.45818 2.29924C8.07588 2.59311 7.6072 2.75243 7.125 2.75243C6.6428 2.75243 6.17412 2.59311 5.79182 2.29924C5.40953 2.00536 5.13505 1.5934 5.01105 1.12742M8.72625 1C8.72625 1 8.10336 1.21875 7.125 1.21875C6.14664 1.21875 5.52375 1 5.52375 1C5.42532 1 5.32761 1.01664 5.23473 1.04922L1 2.53125L1.45473 4.9375L2.79129 5.08844C2.95497 5.10696 3.10569 5.18636 3.21354 5.31087C3.32139 5.43538 3.37846 5.5959 3.37344 5.76055L3.1875 12.375H11.0625L10.8766 5.76055C10.8715 5.5959 10.9286 5.43538 11.0365 5.31087C11.1443 5.18636 11.295 5.10696 11.4587 5.08844L12.7953 4.9375L13.25 2.53125L9.01527 1.04922C8.92239 1.01664 8.82468 1 8.72625 1Z" stroke="white" stroke-width="0.875" stroke-linecap="round" stroke-linejoin="round"/>
</svg>
