<svg width="14" height="14" viewBox="0 0 14 14" fill="none" xmlns="http://www.w3.org/2000/svg">
<path d="M1.75 10.5V7C1.75 5.60761 2.30312 4.27226 3.28769 3.28769C4.27226 2.30312 5.60761 1.75 7 1.75C8.39239 1.75 9.72774 2.30312 10.7123 3.28769C11.6969 4.27226 12.25 5.60761 12.25 7V10.5" stroke="white" stroke-linecap="round" stroke-linejoin="round"/>
<path d="M12.25 11.0834C12.25 11.3928 12.1271 11.6896 11.9083 11.9084C11.6895 12.1272 11.3928 12.2501 11.0833 12.2501H10.5C10.1906 12.2501 9.89383 12.1272 9.67504 11.9084C9.45625 11.6896 9.33333 11.3928 9.33333 11.0834V9.33341C9.33333 9.024 9.45625 8.72725 9.67504 8.50846C9.89383 8.28966 10.1906 8.16675 10.5 8.16675H12.25V11.0834ZM1.75 11.0834C1.75 11.3928 1.87292 11.6896 2.09171 11.9084C2.3105 12.1272 2.60725 12.2501 2.91667 12.2501H3.5C3.80942 12.2501 4.10617 12.1272 4.32496 11.9084C4.54375 11.6896 4.66667 11.3928 4.66667 11.0834V9.33341C4.66667 9.024 4.54375 8.72725 4.32496 8.50846C4.10617 8.28966 3.80942 8.16675 3.5 8.16675H1.75V11.0834Z" stroke="white" stroke-linecap="round" stroke-linejoin="round"/>
</svg>
