<svg width="14" height="14" viewBox="0 0 14 14" fill="none" xmlns="http://www.w3.org/2000/svg">
<path d="M11.375 3.9375H2.625C1.90013 3.9375 1.3125 4.52513 1.3125 5.25V10.5C1.3125 11.2249 1.90013 11.8125 2.625 11.8125H11.375C12.0999 11.8125 12.6875 11.2249 12.6875 10.5V5.25C12.6875 4.52513 12.0999 3.9375 11.375 3.9375Z" stroke="white" stroke-linejoin="round"/>
<path d="M11.2481 3.93755V3.11724C11.2481 2.91604 11.2036 2.71734 11.1179 2.53531C11.0322 2.35329 10.9074 2.19241 10.7523 2.06418C10.5973 1.93595 10.4159 1.84351 10.221 1.79346C10.0262 1.74341 9.82264 1.73699 9.625 1.77466L2.42375 3.00376C2.11103 3.06335 1.8289 3.23021 1.62604 3.47556C1.42317 3.7209 1.31228 4.02935 1.3125 4.3477V5.68755" stroke="white" stroke-linejoin="round"/>
<path d="M10.0625 8.75C9.88944 8.75 9.72027 8.69868 9.57638 8.60254C9.43248 8.50639 9.32033 8.36973 9.25411 8.20985C9.18788 8.04996 9.17055 7.87403 9.20431 7.7043C9.23808 7.53456 9.32141 7.37865 9.44378 7.25628C9.56615 7.13391 9.72206 7.05058 9.8918 7.01681C10.0615 6.98305 10.2375 7.00038 10.3973 7.06661C10.5572 7.13283 10.6939 7.24498 10.79 7.38888C10.8862 7.53277 10.9375 7.70194 10.9375 7.875C10.9375 8.10706 10.8453 8.32962 10.6812 8.49372C10.5171 8.65781 10.2946 8.75 10.0625 8.75Z" fill="white"/>
</svg>
